<svg width="32" height="32" viewBox="0 0 32 32" fill="none" xmlns="http://www.w3.org/2000/svg">
  <circle cx="16" cy="16" r="12" stroke="currentColor" stroke-width="2" fill="none"/>
  <path d="M4 16H28" stroke="currentColor" stroke-width="1"/>
  <path d="M16 4C18.5 8 18.5 24 16 28" stroke="currentColor" stroke-width="1"/>
  <path d="M16 4C13.5 8 13.5 24 16 28" stroke="currentColor" stroke-width="1"/>
  <path d="M6 20C6 20 8 18 10 20C12 22 10 24 8 22C6 20 6 20 6 20Z" fill="currentColor"/>
  <path d="M14 22C14 22 16 20 18 22C20 24 18 26 16 24C14 22 14 22 14 22Z" fill="currentColor"/>
  <path d="M22 20C22 20 24 18 26 20C28 22 26 24 24 22C22 20 22 20 22 20Z" fill="currentColor"/>
</svg> 