<svg width="32" height="32" viewBox="0 0 32 32" fill="none" xmlns="http://www.w3.org/2000/svg">
  <circle cx="16" cy="16" r="12" stroke="currentColor" stroke-width="2" fill="none"/>
  <path d="M4 16H28" stroke="currentColor" stroke-width="1"/>
  <path d="M16 4C18.5 8 18.5 24 16 28" stroke="currentColor" stroke-width="1"/>
  <path d="M16 4C13.5 8 13.5 24 16 28" stroke="currentColor" stroke-width="1"/>
  <path d="M6 8C6 8 8 6 10 8C12 10 10 12 8 10C6 8 6 8 6 8Z" fill="currentColor"/>
  <path d="M22 6C22 6 24 4 26 6C28 8 26 10 24 8C22 6 22 6 22 6Z" fill="currentColor"/>
  <path d="M26 22C26 22 28 20 30 22C32 24 30 26 28 24C26 22 26 22 26 22Z" fill="currentColor"/>
</svg> 