<svg width="32" height="32" viewBox="0 0 32 32" fill="none" xmlns="http://www.w3.org/2000/svg">
  <path d="M16 4C16 4 20 8 20 14C20 18.4183 16.4183 22 12 22C7.58172 22 4 18.4183 4 14C4 8 8 4 16 4Z" fill="currentColor"/>
  <path d="M16 8C16 8 18 10 18 14C18 16.2091 16.2091 18 14 18C11.7909 18 10 16.2091 10 14C10 10 12 8 16 8Z" fill="white" opacity="0.3"/>
  <path d="M24 20C24 20 26 22 26 26C26 28.2091 24.2091 30 22 30C19.7909 30 18 28.2091 18 26C18 22 20 20 24 20Z" fill="currentColor"/>
  <path d="M8 24C8 24 10 26 10 30C10 32.2091 8.20914 34 6 34C3.79086 34 2 32.2091 2 30C2 26 4 24 8 24Z" fill="currentColor"/>
</svg> 